<mxfile host="app.diagrams.net" agent="Mozilla/5.0 (Windows NT 10.0; Win64; x64) AppleWebKit/537.36 (KHTML, like Gecko) Chrome/130.0.0.0 Safari/537.36" version="24.8.0">
  <diagram name="Page-1" id="aBAfNd_FBkbLEz4ILO74">
    <mxGraphModel dx="493" dy="599" grid="1" gridSize="10" guides="1" tooltips="1" connect="1" arrows="1" fold="1" page="1" pageScale="1" pageWidth="850" pageHeight="1100" math="0" shadow="0">
      <root>
        <mxCell id="0" />
        <mxCell id="1" parent="0" />
        <mxCell id="x4Ep533CrrcRFyb9f4VT-2" value="" style="ellipse;whiteSpace=wrap;html=1;" vertex="1" parent="1">
          <mxGeometry x="600" y="330" width="120" height="80" as="geometry" />
        </mxCell>
        <mxCell id="x4Ep533CrrcRFyb9f4VT-3" value="Kratok_opis" style="ellipse;whiteSpace=wrap;html=1;" vertex="1" parent="1">
          <mxGeometry x="580" y="200" width="120" height="80" as="geometry" />
        </mxCell>
        <mxCell id="x4Ep533CrrcRFyb9f4VT-4" value="tip" style="ellipse;whiteSpace=wrap;html=1;" vertex="1" parent="1">
          <mxGeometry x="130" y="160" width="120" height="80" as="geometry" />
        </mxCell>
        <mxCell id="x4Ep533CrrcRFyb9f4VT-5" value="&lt;u&gt;Shifra&lt;/u&gt;" style="ellipse;whiteSpace=wrap;html=1;" vertex="1" parent="1">
          <mxGeometry x="540" y="50" width="120" height="80" as="geometry" />
        </mxCell>
        <mxCell id="x4Ep533CrrcRFyb9f4VT-18" value="" style="rounded=0;orthogonalLoop=1;jettySize=auto;html=1;endArrow=none;endFill=0;" edge="1" parent="1" source="x4Ep533CrrcRFyb9f4VT-6" target="x4Ep533CrrcRFyb9f4VT-17">
          <mxGeometry relative="1" as="geometry" />
        </mxCell>
        <mxCell id="x4Ep533CrrcRFyb9f4VT-6" value="Ime" style="ellipse;whiteSpace=wrap;html=1;" vertex="1" parent="1">
          <mxGeometry x="370" y="50" width="120" height="80" as="geometry" />
        </mxCell>
        <mxCell id="x4Ep533CrrcRFyb9f4VT-7" value="rabotno_vreme" style="ellipse;whiteSpace=wrap;html=1;" vertex="1" parent="1">
          <mxGeometry x="210" y="70" width="120" height="80" as="geometry" />
        </mxCell>
        <mxCell id="x4Ep533CrrcRFyb9f4VT-8" value="" style="rounded=0;whiteSpace=wrap;html=1;" vertex="1" parent="1">
          <mxGeometry x="380" y="460" width="120" height="60" as="geometry" />
        </mxCell>
        <mxCell id="x4Ep533CrrcRFyb9f4VT-9" value="" style="rounded=0;whiteSpace=wrap;html=1;" vertex="1" parent="1">
          <mxGeometry x="140" y="450" width="120" height="60" as="geometry" />
        </mxCell>
        <mxCell id="x4Ep533CrrcRFyb9f4VT-21" value="" style="edgeStyle=none;shape=connector;rounded=0;orthogonalLoop=1;jettySize=auto;html=1;strokeColor=default;align=center;verticalAlign=middle;fontFamily=Helvetica;fontSize=11;fontColor=default;labelBackgroundColor=default;endArrow=none;endFill=0;" edge="1" parent="1" source="x4Ep533CrrcRFyb9f4VT-17" target="x4Ep533CrrcRFyb9f4VT-3">
          <mxGeometry relative="1" as="geometry" />
        </mxCell>
        <mxCell id="x4Ep533CrrcRFyb9f4VT-22" style="edgeStyle=none;shape=connector;rounded=0;orthogonalLoop=1;jettySize=auto;html=1;exitX=1;exitY=0;exitDx=0;exitDy=0;entryX=0;entryY=1;entryDx=0;entryDy=0;strokeColor=default;align=center;verticalAlign=middle;fontFamily=Helvetica;fontSize=11;fontColor=default;labelBackgroundColor=default;endArrow=none;endFill=0;" edge="1" parent="1" source="x4Ep533CrrcRFyb9f4VT-17" target="x4Ep533CrrcRFyb9f4VT-5">
          <mxGeometry relative="1" as="geometry" />
        </mxCell>
        <mxCell id="x4Ep533CrrcRFyb9f4VT-24" style="edgeStyle=none;shape=connector;rounded=0;orthogonalLoop=1;jettySize=auto;html=1;exitX=0;exitY=0.5;exitDx=0;exitDy=0;strokeColor=default;align=center;verticalAlign=middle;fontFamily=Helvetica;fontSize=11;fontColor=default;labelBackgroundColor=default;endArrow=none;endFill=0;" edge="1" parent="1" source="x4Ep533CrrcRFyb9f4VT-17" target="x4Ep533CrrcRFyb9f4VT-4">
          <mxGeometry relative="1" as="geometry" />
        </mxCell>
        <mxCell id="x4Ep533CrrcRFyb9f4VT-17" value="" style="rounded=0;whiteSpace=wrap;html=1;" vertex="1" parent="1">
          <mxGeometry x="370" y="210" width="120" height="60" as="geometry" />
        </mxCell>
        <mxCell id="x4Ep533CrrcRFyb9f4VT-23" style="edgeStyle=none;shape=connector;rounded=0;orthogonalLoop=1;jettySize=auto;html=1;exitX=0;exitY=0;exitDx=0;exitDy=0;entryX=0.767;entryY=0.947;entryDx=0;entryDy=0;entryPerimeter=0;strokeColor=default;align=center;verticalAlign=middle;fontFamily=Helvetica;fontSize=11;fontColor=default;labelBackgroundColor=default;endArrow=none;endFill=0;" edge="1" parent="1" source="x4Ep533CrrcRFyb9f4VT-17" target="x4Ep533CrrcRFyb9f4VT-7">
          <mxGeometry relative="1" as="geometry" />
        </mxCell>
      </root>
    </mxGraphModel>
  </diagram>
</mxfile>
